<svg width="25" height="18" viewBox="0 0 25 18" fill="none" xmlns="http://www.w3.org/2000/svg">
<path d="M13.1351 0.291957L20.9598 17.3255C21 17.4146 21.0104 17.5125 20.9894 17.607C20.9685 17.7014 20.9173 17.788 20.8423 17.8559V17.8803C20.7581 17.9471 20.6531 17.9882 20.542 17.9978C20.4308 18.0074 20.3192 17.985 20.2227 17.9338L12.5369 13.8993L4.78691 17.7927C4.69151 17.847 4.57974 17.8724 4.46753 17.8654C4.35532 17.8584 4.24839 17.8194 4.162 17.7537C4.08096 17.682 4.02696 17.5888 4.00777 17.4873C3.98857 17.3859 4.00517 17.2815 4.05517 17.1892L12.163 0.287091C12.2055 0.200946 12.2746 0.127929 12.3618 0.0769435C12.4491 0.0259582 12.5507 -0.00079201 12.6544 -4.58404e-05C12.7568 0.00150119 12.8566 0.0298508 12.9418 0.0816237C13.027 0.133397 13.0941 0.206409 13.1351 0.291957Z" fill="url(#paint0_linear_1520_2836)"/>
<path d="M15 11.8099V11.9999C16.1459 11.6799 17.2162 11.3299 18 10.9999C17.227 11.2599 16.1568 11.5499 15 11.8099Z" fill="url(#paint1_linear_1520_2836)"/>
<path d="M6 11.514L5.76886 11.4747C4.77052 11.2854 3.79285 11.011 2.8481 10.6549C2.39144 10.4874 1.95766 10.2699 1.55583 10.007C1.19358 9.81891 0.922702 9.50778 0.799372 9.1381C0.807562 8.96221 0.864055 8.79124 0.963416 8.64165C1.06278 8.49206 1.20166 8.36888 1.36671 8.28397C1.75474 8.02491 2.17894 7.81681 2.62747 7.66546C3.56784 7.34545 4.53886 7.11039 5.52722 6.9635C5.65646 6.92966 5.76693 6.85088 5.83597 6.74332C5.90501 6.63576 5.92737 6.50759 5.89847 6.38512C5.86957 6.26264 5.79159 6.15514 5.68055 6.08469C5.56951 6.01425 5.43382 5.98619 5.30133 6.00628C4.25563 6.20054 3.23323 6.49159 2.24924 6.87514C1.74057 7.07776 1.26348 7.3436 0.830891 7.66546C0.590487 7.8366 0.384215 8.04597 0.221525 8.28397C0.0366629 8.56762 -0.035839 8.90289 0.0166513 9.23137C0.0806103 9.53535 0.235429 9.81618 0.46317 10.0413C0.65977 10.2418 0.884137 10.4167 1.13032 10.5617C1.58981 10.8329 2.07948 11.0568 2.5907 11.2293C3.58436 11.5568 4.60762 11.8 5.64804 11.9558L5.97899 11.9999L6 11.514Z" fill="url(#paint2_linear_1520_2836)"/>
<path d="M24.9939 8.85334C24.963 8.62192 24.8613 8.4009 24.6984 8.21133C24.4092 7.89468 24.0431 7.63191 23.6239 7.44002C22.109 6.80783 20.4725 6.40043 18.7884 6.23624C17.8643 6.12032 16.9295 6.04898 16 5.99994V6.32541C16.908 6.41012 17.8052 6.52604 18.6864 6.67762C20.2693 6.9033 21.7928 7.3559 23.1887 8.01516C23.4863 8.16898 23.7438 8.37058 23.9462 8.60813C24.0201 8.69466 24.0624 8.79699 24.0681 8.90291C24.0738 9.00884 24.0427 9.1139 23.9785 9.20556C23.7956 9.43247 23.5508 9.62036 23.2639 9.75395C22.9375 9.91487 22.594 10.0507 22.2377 10.1597C22.1167 10.2126 22.0246 10.3018 21.9801 10.4091C21.9357 10.5164 21.9422 10.6338 21.9983 10.7372C22.0545 10.8407 22.1561 10.9225 22.2825 10.966C22.4088 11.0094 22.5504 11.0113 22.6783 10.9711C23.0867 10.8243 23.4772 10.6451 23.8442 10.4361C24.264 10.215 24.6081 9.9079 24.8435 9.5444C24.9669 9.32928 25.0188 9.0907 24.9939 8.85334Z" fill="url(#paint3_linear_1520_2836)"/>
<path d="M6.56995 5.4523C6.70973 5.59049 6.81992 5.75565 6.8938 5.93774C6.96767 6.11982 7.00371 6.31502 6.9997 6.51146C7.00012 6.7062 6.96184 6.89909 6.88708 7.07893C6.81233 7.25878 6.70259 7.42202 6.56422 7.55917C6.3894 7.73432 6.17393 7.86355 5.93701 7.93536C5.70009 8.00716 5.44908 8.01931 5.20633 7.97071C4.96358 7.92211 4.73662 7.81429 4.54568 7.65683C4.35473 7.49938 4.20572 7.29718 4.11192 7.06825C4.01812 6.83932 3.98244 6.59077 4.00806 6.34473C4.03368 6.09868 4.1198 5.86279 4.25875 5.65806C4.3977 5.45332 4.58518 5.2861 4.80447 5.17129C5.02377 5.05648 5.26808 4.99764 5.51564 5.00001C5.71283 5.00041 5.90789 5.04069 6.08909 5.11842C6.27028 5.19615 6.43385 5.30973 6.56995 5.4523Z" fill="url(#paint4_linear_1520_2836)"/>
<path d="M24 10.5081C23.9998 10.7036 23.961 10.897 23.8859 11.0774C23.8107 11.2578 23.7006 11.4215 23.562 11.5592C23.3166 11.8052 22.9935 11.9584 22.6477 11.9926C22.3019 12.0269 21.955 11.94 21.6661 11.7468C21.3773 11.5536 21.1645 11.2662 21.064 10.9336C20.9636 10.6009 20.9817 10.2438 21.1154 9.92302C21.249 9.60228 21.4899 9.33788 21.7968 9.17499C22.1037 9.01209 22.4577 8.9608 22.7982 9.02988C23.1387 9.09896 23.4447 9.28411 23.6639 9.55372C23.8831 9.82333 24.0019 10.1607 24 10.5081Z" fill="url(#paint5_linear_1520_2836)"/>
<defs>
<linearGradient id="paint0_linear_1520_2836" x1="12.5" y1="-6.10352e-05" x2="12.5" y2="17.9999" gradientUnits="userSpaceOnUse">
<stop stop-color="#8F3AFF"/>
<stop offset="1" stop-color="#5F48F1"/>
</linearGradient>
<linearGradient id="paint1_linear_1520_2836" x1="16.5" y1="10.9999" x2="16.5" y2="11.9999" gradientUnits="userSpaceOnUse">
<stop stop-color="#8F3AFF"/>
<stop offset="1" stop-color="#5F48F1"/>
</linearGradient>
<linearGradient id="paint2_linear_1520_2836" x1="3" y1="5.99994" x2="3" y2="11.9999" gradientUnits="userSpaceOnUse">
<stop stop-color="#8F3AFF"/>
<stop offset="1" stop-color="#5F48F1"/>
</linearGradient>
<linearGradient id="paint3_linear_1520_2836" x1="20.5" y1="5.99994" x2="20.5" y2="10.9999" gradientUnits="userSpaceOnUse">
<stop stop-color="#8F3AFF"/>
<stop offset="1" stop-color="#5F48F1"/>
</linearGradient>
<linearGradient id="paint4_linear_1520_2836" x1="5.5" y1="4.99994" x2="5.5" y2="7.99994" gradientUnits="userSpaceOnUse">
<stop stop-color="#8F3AFF"/>
<stop offset="1" stop-color="#5F48F1"/>
</linearGradient>
<linearGradient id="paint5_linear_1520_2836" x1="22.5" y1="8.99994" x2="22.5" y2="11.9999" gradientUnits="userSpaceOnUse">
<stop stop-color="#8F3AFF"/>
<stop offset="1" stop-color="#5F48F1"/>
</linearGradient>
</defs>
</svg>
