<svg width="19" height="19" viewBox="0 0 19 19" fill="none" xmlns="http://www.w3.org/2000/svg">
<path d="M18.2956 12.7847C18.274 12.6826 18.2485 12.5767 18.2117 12.4749C17.8615 11.5709 16.9124 11.0472 15.9623 11.235C15.6481 11.2925 15.346 11.0833 15.2886 10.769L14.7314 7.70955C14.2659 5.11563 12.3299 3.03084 9.77981 2.38059C9.51201 0.976104 8.16097 0.0556787 6.75639 0.319675C5.37081 0.583187 4.44971 1.90762 4.68671 3.29767C2.53972 4.73319 1.44888 7.30967 1.92067 9.85398L2.52101 13.114C2.57466 13.4284 2.36931 13.7303 2.05504 13.7877C1.10053 13.949 0.398739 14.7733 0.389201 15.7436C0.405181 16.8197 1.29049 17.6759 2.36663 17.6599C2.37424 17.6597 2.38184 17.6596 2.38564 17.6595C2.48828 17.6568 2.58693 17.6467 2.68919 17.6289L4.67699 17.2626C5.40422 18.4842 6.9818 18.8891 8.20721 18.1618C8.85169 17.7764 9.29942 17.1335 9.42891 16.3922L16.7328 15.0499C17.7891 14.8556 18.4899 13.8411 18.2956 12.7847ZM6.9167 17.2284C6.64299 17.2354 6.37085 17.1548 6.1462 16.9969L7.9561 16.6656C7.72141 17.0101 7.33488 17.2177 6.9167 17.2284ZM8.28407 2.20183C8.04057 2.20042 7.80127 2.21412 7.55845 2.23932C7.30432 2.26862 7.05448 2.31682 6.80494 2.37643C6.752 2.38919 6.69917 2.40575 6.64624 2.41851C6.44221 2.47315 6.24588 2.53141 6.04994 2.60487C6.03103 2.60915 6.00832 2.61354 5.9895 2.62162C6.11388 2.12774 6.51516 1.75233 7.01503 1.66353C7.08317 1.65038 7.1515 1.64484 7.21993 1.6431C7.65341 1.63587 8.06569 1.8422 8.31448 2.20106L8.28407 2.20183Z" fill="url(#paint0_linear_1520_2827)"/>
<defs>
<linearGradient id="paint0_linear_1520_2827" x1="0.0518299" y1="2.49413" x2="18.3973" y2="16.2059" gradientUnits="userSpaceOnUse">
<stop stop-color="#8F3AFF"/>
<stop offset="1" stop-color="#4D4DEC"/>
</linearGradient>
</defs>
</svg>
