<svg width="18" height="18" viewBox="0 0 18 18" fill="none" xmlns="http://www.w3.org/2000/svg">
<g clip-path="url(#clip0_1520_2832)">
<path fill-rule="evenodd" clip-rule="evenodd" d="M0 6.00983C0 3.21389 2.26657 0.947327 5.0625 0.947327H11.8125C14.6084 0.947327 16.875 3.21389 16.875 6.00983V12.7598C16.875 15.5558 14.6084 17.8223 11.8125 17.8223H5.0625C2.26657 17.8223 0 15.5558 0 12.7598V6.00983ZM4.21875 5.44733C3.90808 5.44733 3.65625 5.69916 3.65625 6.00983C3.65625 6.3205 3.90808 6.57233 4.21875 6.57233H12.6562C12.9669 6.57233 13.2188 6.3205 13.2188 6.00983C13.2188 5.69916 12.9669 5.44733 12.6562 5.44733H4.21875ZM4.21875 8.82233C3.90808 8.82233 3.65625 9.07416 3.65625 9.38483C3.65625 9.6955 3.90808 9.94733 4.21875 9.94733H8.71875C9.02942 9.94733 9.28125 9.6955 9.28125 9.38483C9.28125 9.07416 9.02942 8.82233 8.71875 8.82233H4.21875ZM4.21875 12.1973C3.90808 12.1973 3.65625 12.4492 3.65625 12.7598C3.65625 13.0705 3.90808 13.3223 4.21875 13.3223H12.375C12.6857 13.3223 12.9375 13.0705 12.9375 12.7598C12.9375 12.4492 12.6857 12.1973 12.375 12.1973H4.21875Z" fill="url(#paint0_linear_1520_2832)"/>
</g>
<defs>
<linearGradient id="paint0_linear_1520_2832" x1="21.5561" y1="21.2319" x2="6.58828" y2="3.72129" gradientUnits="userSpaceOnUse">
<stop offset="0.00265844" stop-color="#2159E0"/>
<stop offset="1" stop-color="#8F3AFF"/>
</linearGradient>
<clipPath id="clip0_1520_2832">
<rect width="18" height="18" fill="white"/>
</clipPath>
</defs>
</svg>
