<svg width="20" height="18" viewBox="0 0 20 18" fill="none" xmlns="http://www.w3.org/2000/svg">
<path d="M15.3572 0.0420074C14.3471 -0.0813437 13.3233 0.0672668 12.3849 0.473476C11.4464 0.879685 10.625 1.52976 10 2.36087C9.375 1.52976 8.55358 0.879685 7.61513 0.473476C6.67668 0.0672668 5.65293 -0.0813437 4.64282 0.0420074C3.55549 0.310767 2.56139 0.886477 1.77095 1.70518C0.9805 2.52388 0.42466 3.55353 0.165178 4.67972C-0.860949 8.84815 2.9637 14.1346 9.69349 17.8337C9.78714 17.888 9.89267 17.9165 10 17.9165C10.1073 17.9165 10.2129 17.888 10.3065 17.8337C17.0363 14.1346 20.8609 8.84815 19.8348 4.67972C19.5753 3.55353 19.0195 2.52388 18.2291 1.70518C17.4386 0.886477 16.4445 0.310767 15.3572 0.0420074Z" fill="url(#paint0_linear_1520_2859)"/>
<defs>
<linearGradient id="paint0_linear_1520_2859" x1="10" y1="-0.00012207" x2="10" y2="17.9165" gradientUnits="userSpaceOnUse">
<stop stop-color="#8F3AFF"/>
<stop offset="1" stop-color="#524CEE"/>
</linearGradient>
</defs>
</svg>
