<svg width="20" height="20" viewBox="0 0 20 20" fill="none" xmlns="http://www.w3.org/2000/svg">
<g clip-path="url(#clip0_1520_2270)">
<path d="M14.5438 20C14.4038 20 14.2604 19.9825 14.1188 19.945L1.23294 16.4942C0.349606 16.2508 -0.177061 15.3358 0.0546058 14.4525L1.68044 8.39251C1.74044 8.17001 1.96877 8.04084 2.19044 8.09751C2.41294 8.15667 2.54461 8.38584 2.48544 8.60751L0.860439 14.6658C0.744606 15.1075 1.00961 15.5675 1.45211 15.69L14.3329 19.1392C14.7754 19.2558 15.2321 18.9925 15.3471 18.5525L15.9979 16.1408C16.0579 15.9183 16.2863 15.7858 16.5088 15.8467C16.7313 15.9067 16.8621 16.1358 16.8029 16.3575L16.1529 18.7658C15.9571 19.5075 15.2821 20 14.5438 20Z" fill="#6B6B6B"/>
<path d="M18.334 15H5.00065C4.08148 15 3.33398 14.2525 3.33398 13.3333V3.33332C3.33398 2.41416 4.08148 1.66666 5.00065 1.66666H18.334C19.2532 1.66666 20.0007 2.41416 20.0007 3.33332V13.3333C20.0007 14.2525 19.2532 15 18.334 15ZM5.00065 2.49999C4.54148 2.49999 4.16732 2.87416 4.16732 3.33332V13.3333C4.16732 13.7925 4.54148 14.1667 5.00065 14.1667H18.334C18.7932 14.1667 19.1673 13.7925 19.1673 13.3333V3.33332C19.1673 2.87416 18.7932 2.49999 18.334 2.49999H5.00065Z" fill="#6B6B6B"/>
<path d="M7.50065 7.49999C6.58148 7.49999 5.83398 6.75249 5.83398 5.83332C5.83398 4.91416 6.58148 4.16666 7.50065 4.16666C8.41982 4.16666 9.16732 4.91416 9.16732 5.83332C9.16732 6.75249 8.41982 7.49999 7.50065 7.49999ZM7.50065 4.99999C7.04148 4.99999 6.66732 5.37416 6.66732 5.83332C6.66732 6.29249 7.04148 6.66666 7.50065 6.66666C7.95982 6.66666 8.33398 6.29249 8.33398 5.83332C8.33398 5.37416 7.95982 4.99999 7.50065 4.99999Z" fill="#6B6B6B"/>
<path d="M3.8075 14.1083C3.70083 14.1083 3.59417 14.0675 3.5125 13.9867C3.35 13.8242 3.35 13.56 3.5125 13.3975L7.44833 9.46166C7.92 8.98999 8.74417 8.98999 9.21583 9.46166L10.3875 10.6333L13.6308 6.74166C13.8667 6.45916 14.2133 6.29499 14.5825 6.29166H14.5917C14.9567 6.29166 15.3025 6.44999 15.5408 6.72749L19.8992 11.8125C20.0492 11.9867 20.0292 12.25 19.8542 12.4C19.68 12.55 19.4175 12.5308 19.2667 12.355L14.9083 7.26999C14.8275 7.17666 14.7158 7.12499 14.5917 7.12499C14.505 7.11749 14.3525 7.17749 14.2717 7.27499L10.7358 11.5175C10.6608 11.6075 10.5517 11.6617 10.4342 11.6667C10.3158 11.675 10.2033 11.6283 10.1208 11.545L8.62667 10.0508C8.46917 9.89416 8.195 9.89416 8.0375 10.0508L4.10167 13.9867C4.02083 14.0675 3.91417 14.1083 3.8075 14.1083Z" fill="#6B6B6B"/>
</g>
<defs>
<clipPath id="clip0_1520_2270">
<rect width="20" height="20" fill="white"/>
</clipPath>
</defs>
</svg>
