<svg width="55" height="27" viewBox="0 0 55 27" fill="none" xmlns="http://www.w3.org/2000/svg">
<path d="M12.7424 2.47955e-05C16.6627 2.47955e-05 20.031 1.32883 23.0406 4.07002C23.6654 4.62883 24.2792 5.258 24.8534 5.918C25.6476 6.83764 25.5464 8.228 24.6269 9.02443C23.7073 9.8142 22.3213 9.71741 21.5227 8.79788C21.0762 8.28085 20.5921 7.78371 20.0906 7.33264C17.8884 5.32847 15.5541 4.40002 12.7382 4.40002C8.14021 4.40002 4.40022 8.34681 4.40022 13.2C4.40022 18.0532 8.14236 22 12.7426 22C18.9466 22 22.064 17.3559 25.6741 11.9747C29.4382 6.36241 33.704 2.47955e-05 42.2576 2.47955e-05C49.2821 2.47955e-05 55 5.92026 55 13.2C55 20.4798 49.2821 26.4 42.2576 26.4C38.3373 26.4 34.969 25.0712 31.9594 22.33C31.3346 21.7712 30.7208 21.142 30.1466 20.482C29.3524 19.5624 29.4536 18.172 30.3731 17.3756C31.2927 16.5836 32.681 16.6826 33.4773 17.6022C33.9238 18.1192 34.4079 18.6163 34.9094 19.0674C37.1116 21.0716 39.4458 22 42.2618 22C46.8598 22 50.5998 18.0532 50.5998 13.2C50.5998 8.34681 46.8576 4.40002 42.2574 4.40002C36.0534 4.40002 32.936 9.0442 29.3258 14.4254C25.5617 20.0375 21.2958 26.4 12.7423 26.4C5.71785 26.4 0 20.4798 0 13.2C0 5.92026 5.71785 2.47955e-05 12.7424 2.47955e-05Z" fill="url(#paint0_linear_1520_2766)"/>
<defs>
<linearGradient id="paint0_linear_1520_2766" x1="27.5007" y1="25.5637" x2="27.5007" y2="-0.0442727" gradientUnits="userSpaceOnUse">
<stop stop-color="#C544FC"/>
<stop offset="1" stop-color="#2159E0"/>
</linearGradient>
</defs>
</svg>
