<svg width="25" height="22" viewBox="0 0 25 22" fill="none" xmlns="http://www.w3.org/2000/svg">
<path d="M25 7.722C24.9996 7.22568 24.9254 6.73123 24.7788 6.24957L23.4125 1.78514C23.2564 1.27514 22.8961 0.822427 22.3889 0.49897C21.8818 0.175513 21.2568 -0.000117489 20.6135 5.89668e-08H4.38654C3.74318 -0.000117489 3.11824 0.175513 2.61107 0.49897C2.10391 0.822427 1.74362 1.27514 1.5875 1.78514L0.221154 6.24957C0.0746132 6.73123 0.000349327 7.22568 0 7.722C0.00562216 8.59298 0.348619 9.44014 0.979808 10.142C0.972243 10.1658 0.966145 10.19 0.961538 10.2143V19.6429C0.961538 20.268 1.26545 20.8676 1.80642 21.3096C2.34739 21.7517 3.08111 22 3.84615 22H21.1538C21.9189 22 22.6526 21.7517 23.1936 21.3096C23.7345 20.8676 24.0385 20.268 24.0385 19.6429V10.2143C24.0339 10.19 24.0278 10.1658 24.0202 10.142C24.6514 9.44014 24.9944 8.59298 25 7.722ZM2.0875 6.63064L3.45288 2.167C3.50483 1.99682 3.62497 1.84573 3.79416 1.7378C3.96336 1.62987 4.17189 1.5713 4.38654 1.57143H20.6135C20.8281 1.5713 21.0366 1.62987 21.2058 1.7378C21.375 1.84573 21.4952 1.99682 21.5471 2.167L22.9125 6.63064C23.0214 6.98761 23.0767 7.3541 23.0769 7.722C23.0926 8.32285 22.8376 8.90746 22.3604 9.36477C21.8832 9.82207 21.217 10.1202 20.4885 10.2025C19.9869 10.2462 19.4801 10.1811 19.0192 10.0136C18.5583 9.84611 18.1597 9.58225 17.8635 9.24864C17.6942 9.05931 17.4726 8.90524 17.2169 8.7989C16.9611 8.69256 16.6783 8.63695 16.3913 8.63657H16.375C16.0697 8.63769 15.7689 8.69633 15.4959 8.80794C15.2229 8.91955 14.9851 9.08112 14.801 9.28007C14.532 9.57073 14.1843 9.80649 13.785 9.96881C13.3858 10.1311 12.9459 10.2156 12.5 10.2156C12.0541 10.2156 11.6142 10.1311 11.215 9.96881C10.8157 9.80649 10.468 9.57073 10.199 9.28007C10.0149 9.08112 9.77709 8.91955 9.50409 8.80794C9.23109 8.69633 8.93026 8.63769 8.625 8.63657H8.60865C8.32169 8.63695 8.03887 8.69256 7.78311 8.7989C7.52735 8.90524 7.30585 9.05931 7.13654 9.24864C6.84026 9.58219 6.44158 9.84601 5.98072 10.0135C5.51985 10.1809 5.01308 10.2461 4.51154 10.2025C3.783 10.1202 3.11684 9.82207 2.63963 9.36477C2.16243 8.90746 1.90743 8.32285 1.92308 7.722C1.92335 7.3541 1.97856 6.98761 2.0875 6.63064ZM9.61538 20.4286V16.5C9.61538 16.2916 9.71669 16.0918 9.89701 15.9444C10.0773 15.7971 10.3219 15.7143 10.5769 15.7143H14.4231C14.6781 15.7143 14.9227 15.7971 15.103 15.9444C15.2833 16.0918 15.3846 16.2916 15.3846 16.5V20.4286H9.61538ZM21.1538 20.4286H17.3077V16.5C17.3077 15.8748 17.0038 15.2753 16.4628 14.8332C15.9218 14.3912 15.1881 14.1429 14.4231 14.1429H10.5769C9.81188 14.1429 9.07816 14.3912 8.53719 14.8332C7.99622 15.2753 7.69231 15.8748 7.69231 16.5V20.4286H3.84615C3.59114 20.4286 3.34657 20.3458 3.16624 20.1984C2.98592 20.0511 2.88462 19.8512 2.88462 19.6429V11.4321C3.33915 11.6086 3.82668 11.7215 4.32692 11.7661C4.49038 11.7794 4.65385 11.7857 4.81635 11.7857C5.56247 11.7884 6.29914 11.6492 6.96803 11.3791C7.63692 11.1089 8.21968 10.7152 8.67019 10.2292C9.1163 10.7143 9.69481 11.1076 10.3597 11.3778C11.0246 11.648 11.7574 11.7877 12.5 11.7857C13.2475 11.7912 13.9854 11.6477 14.6498 11.3675C15.3141 11.0874 15.8848 10.6792 16.3125 10.1781C16.8052 10.7319 17.4675 11.1701 18.2328 11.4488C18.9981 11.7275 19.8397 11.8369 20.6731 11.7661C21.1733 11.7214 21.6608 11.6086 22.1154 11.4321V19.6429C22.1154 19.8512 22.0141 20.0511 21.8338 20.1984C21.6534 20.3458 21.4089 20.4286 21.1538 20.4286Z" fill="#65676B"/>
</svg>
