<svg width="25" height="22" viewBox="0 0 25 22" fill="none" xmlns="http://www.w3.org/2000/svg">
<path d="M24.0379 4.22709C24.0379 2.36291 22.3148 0.846191 20.1964 0.846191H4.8024C2.68401 0.846191 0.960938 2.36291 0.960938 4.22709V17.7734C0.960938 19.6376 2.68401 21.1539 4.8024 21.1539H20.1964C22.3148 21.1539 24.0379 19.6376 24.0379 17.7734C24.0379 13.6849 24.0379 8.34162 24.0379 4.22709ZM2.88401 4.22709C2.88401 3.29582 3.74414 2.5385 4.8024 2.5385H20.1964C21.2547 2.5385 22.1148 3.29582 22.1148 4.22709V6.69903H2.88401V4.22709ZM22.1148 17.7734C22.1148 18.7043 21.2547 19.4616 20.1964 19.4616H4.8024C3.74414 19.4616 2.88401 18.7043 2.88401 17.7734V8.39134H22.1148V17.7734Z" fill="#65676B"/>
<path d="M6.54552 16.9913H12.4997C13.0312 16.9913 13.4613 16.6124 13.4613 16.1451C13.4613 15.6778 13.0312 15.299 12.4997 15.299H6.54552C6.01405 15.299 5.58398 15.6778 5.58398 16.1451C5.58398 16.6124 6.01405 16.9913 6.54552 16.9913Z" fill="#65676B"/>
<path d="M6.54552 12.5535H18.454C18.9854 12.5535 19.4155 12.1746 19.4155 11.7074C19.4155 11.2401 18.9854 10.8612 18.454 10.8612H6.54552C6.01405 10.8612 5.58398 11.2401 5.58398 11.7074C5.58398 12.1746 6.01405 12.5535 6.54552 12.5535Z" fill="#65676B"/>
<path d="M4.95931 4.0176C4.54108 4.42765 4.63482 4.93279 4.95931 5.21907C5.3156 5.51573 5.91495 5.57132 6.31523 5.21907C6.6983 4.88283 6.69899 4.35444 6.31523 4.0176C5.95842 3.69109 5.32525 3.69382 4.95931 4.0176Z" fill="#65676B"/>
<path d="M9.93039 4.01761C9.52869 3.66411 8.908 3.72431 8.57541 4.01761C8.17858 4.36306 8.22499 4.9115 8.57541 5.21908C8.92302 5.52498 9.54063 5.563 9.93039 5.21908C10.3644 4.83813 10.2566 4.27402 9.93039 4.01761Z" fill="#65676B"/>
<path d="M12.1908 4.0176C11.8193 4.34365 11.8191 4.89284 12.1908 5.21907C12.528 5.51581 13.1476 5.56652 13.5467 5.21907C13.9293 4.88156 13.9308 4.3565 13.5467 4.0176C13.1908 3.70442 12.5467 3.70442 12.1908 4.0176Z" fill="#65676B"/>
</svg>
