<svg width="30" height="25" viewBox="0 0 30 25" fill="none" xmlns="http://www.w3.org/2000/svg">
<path d="M25.6055 13.2156H22.6689C22.2692 13.2156 21.8822 13.2705 21.514 13.3715C20.7875 11.9363 19.3044 10.9501 17.5954 10.9501H12.4046C10.6956 10.9501 9.21246 11.9363 8.48602 13.3715C8.11775 13.2705 7.7308 13.2156 7.33113 13.2156H4.39453C1.97139 13.2156 0 15.1969 0 17.6322V22.3501C0 23.8113 1.18283 25 2.63672 25H27.3633C28.8172 25 30 23.8113 30 22.3501V17.6322C30 15.1969 28.0286 13.2156 25.6055 13.2156ZM8.01006 15.3668V23.2335H2.63672C2.15209 23.2335 1.75781 22.8372 1.75781 22.3501V17.6322C1.75781 16.1711 2.94064 14.9823 4.39453 14.9823H7.33113C7.56973 14.9823 7.80076 15.0149 8.02072 15.0749C8.01439 15.1715 8.01006 15.2687 8.01006 15.3668ZM20.2321 23.2335H9.76787V15.3667C9.76787 13.9056 10.9507 12.7168 12.4046 12.7168H17.5954C19.0493 12.7168 20.2321 13.9056 20.2321 15.3667V23.2335ZM28.2422 22.3501C28.2422 22.8372 27.8479 23.2335 27.3633 23.2335H21.9899V15.3667C21.9899 15.2686 21.9856 15.1714 21.9793 15.0748C22.1992 15.0149 22.4303 14.9823 22.6689 14.9823H25.6055C27.0594 14.9823 28.2422 16.171 28.2422 17.6322V22.3501Z" fill="#760FFE"/>
<path d="M5.86207 4.87439C3.70881 4.87439 1.95703 6.63494 1.95703 8.79898C1.95697 10.963 3.70881 12.7236 5.86207 12.7236C8.01527 12.7236 9.76711 10.963 9.76711 8.79898C9.76711 6.63494 8.01533 4.87439 5.86207 4.87439ZM5.86201 10.957C4.67801 10.957 3.71478 9.98891 3.71478 8.79898C3.71478 7.60905 4.67801 6.641 5.86201 6.641C7.04602 6.641 8.00924 7.60905 8.00924 8.79898C8.00924 9.98891 7.04602 10.957 5.86201 10.957Z" fill="#760FFE"/>
<path d="M15.0003 0C12.1236 0 9.7832 2.35207 9.7832 5.24319C9.7832 8.13431 12.1236 10.4864 15.0003 10.4864C17.877 10.4864 20.2173 8.13431 20.2173 5.24319C20.2173 2.35213 17.877 0 15.0003 0ZM15.0003 8.71976C13.0928 8.71976 11.541 7.1602 11.541 5.24319C11.541 3.32624 13.0928 1.76661 15.0003 1.76661C16.9077 1.76661 18.4595 3.32618 18.4595 5.24319C18.4595 7.1602 16.9077 8.71976 15.0003 8.71976Z" fill="#760FFE"/>
<path d="M24.1375 4.87439C21.9843 4.87439 20.2324 6.63494 20.2324 8.79898C20.2325 10.963 21.9843 12.7236 24.1375 12.7236C26.2907 12.7236 28.0425 10.963 28.0425 8.79898C28.0425 6.63494 26.2907 4.87439 24.1375 4.87439ZM24.1375 10.957C22.9535 10.957 21.9902 9.98891 21.9902 8.79898C21.9903 7.60905 22.9535 6.641 24.1375 6.641C25.3215 6.641 26.2847 7.60905 26.2847 8.79898C26.2847 9.98891 25.3215 10.957 24.1375 10.957Z" fill="#760FFE"/>
</svg>
